<svg width="24" height="24" viewBox="0 0 24 24" fill="none" xmlns="http://www.w3.org/2000/svg">
<g clip-path="url(#clip0_23_2)">
<path d="M19.6895 0.735596C21.665 0.735616 23.2666 2.33723 23.2666 4.31274V19.6887C23.2664 21.6641 21.6649 23.2658 19.6895 23.2659H4.31152C2.33609 23.2659 0.734528 21.6641 0.734375 19.6887V4.31274C0.734375 2.33722 2.336 0.735596 4.31152 0.735596H19.6895ZM7.36523 7.89478C5.44238 7.89502 3.88402 9.58875 3.88379 11.678C3.88379 13.7673 5.44233 15.4619 7.36523 15.4622C9.28842 15.4622 10.8477 13.7676 10.8477 11.678C10.8474 9.58869 9.28819 7.89478 7.36523 7.89478ZM16.1719 7.89575C14.1933 7.89575 12.5889 9.56731 12.5889 11.6292C12.5891 13.6907 14.1934 15.3616 16.1719 15.3616C18.1502 15.3614 19.7537 13.6907 19.7539 11.6292C19.7539 9.56753 18.1503 7.89596 16.1719 7.89575Z" fill="white"/>
</g>
<defs>
<clipPath id="clip0_23_2">
<rect width="24" height="24" fill="white"/>
</clipPath>
</defs>
</svg>
