<svg width="22" height="22" viewBox="0 0 22 22" fill="none" xmlns="http://www.w3.org/2000/svg">
<path d="M15.417 0C18.531 0.00015771 21.0555 2.52459 21.0557 5.63867V15.417C21.0555 18.531 18.531 21.0555 15.417 21.0557H5.63867C2.52459 21.0555 0.000157707 18.531 0 15.417V5.63867C0.000117766 2.52457 2.52457 0.000117764 5.63867 0H15.417ZM10.75 5.75C7.98858 5.75 5.75 7.98858 5.75 10.75C5.75 13.5114 7.98858 15.75 10.75 15.75C13.5114 15.75 15.75 13.5114 15.75 10.75C15.75 7.98858 13.5114 5.75 10.75 5.75ZM15.75 3.75C15.1977 3.75 14.75 4.19772 14.75 4.75C14.75 5.30228 15.1977 5.75 15.75 5.75C16.3023 5.75 16.75 5.30228 16.75 4.75C16.75 4.19772 16.3023 3.75 15.75 3.75Z" fill="white"/>
</svg>
