<svg width="23" height="20" viewBox="0 0 23 20" fill="#fff" xmlns="http://www.w3.org/2000/svg">
<path d="M22.266 1.68854C21.3297 2.34901 20.2929 2.85416 19.1958 3.18454C18.6069 2.50744 17.8243 2.02753 16.9538 1.80972C16.0832 1.5919 15.1668 1.64669 14.3285 1.96668C13.4901 2.28666 12.7702 2.8564 12.2662 3.59884C11.7622 4.34129 11.4984 5.22061 11.5104 6.11788V7.09565C9.79213 7.14021 8.08946 6.75912 6.55409 5.98631C5.01872 5.21351 3.6983 4.07299 2.71044 2.66632C2.71044 2.66632 -1.20067 11.4663 7.59933 15.3774C5.58562 16.7443 3.18677 17.4297 0.754883 17.333C9.55488 22.2219 20.3104 17.333 20.3104 6.08854C20.3095 5.81619 20.2834 5.5445 20.2322 5.27699C21.2301 4.29285 21.9344 3.05031 22.266 1.68854V1.68854Z" stroke="#fff" stroke-width="1.5" stroke-linecap="round" stroke-linejoin="round"/>
</svg>