<svg width="24" height="17" viewBox="0 0 24 17" fill="#fff" xmlns="http://www.w3.org/2000/svg">
<path d="M22.0619 3.36622C21.9457 2.90218 21.7092 2.477 21.3761 2.13364C21.0431 1.79028 20.6253 1.54089 20.165 1.41067C18.4832 1 11.7561 1 11.7561 1C11.7561 1 5.029 1 3.34723 1.44978C2.88693 1.58 2.46916 1.82939 2.1361 2.17275C1.80304 2.51611 1.56649 2.94129 1.45034 3.40533C1.14255 5.1121 0.99199 6.8435 1.00056 8.57778C0.989588 10.3251 1.14015 12.0697 1.45034 13.7893C1.57839 14.239 1.82024 14.648 2.15252 14.9768C2.48481 15.3057 2.89629 15.5433 3.34723 15.6667C5.029 16.1164 11.7561 16.1164 11.7561 16.1164C11.7561 16.1164 18.4832 16.1164 20.165 15.6667C20.6253 15.5364 21.0431 15.2871 21.3761 14.9437C21.7092 14.6003 21.9457 14.1752 22.0619 13.7111C22.3673 12.0172 22.5179 10.299 22.5117 8.57778C22.5226 6.83044 22.3721 5.08584 22.0619 3.36622V3.36622Z" stroke="#fff" stroke-width="1.5" stroke-linecap="round" stroke-linejoin="round"/>
<path d="M9.55566 11.775L15.1779 8.5777L9.55566 5.38037V11.775Z" fill="#374151" stroke="#374151" stroke-width="1.5" stroke-linecap="round" stroke-linejoin="round"/>
</svg>